<?xml version="1.0" standalone="no"?>
<!DOCTYPE svg PUBLIC "-//W3C//DTD SVG 20010904//EN"
 "http://www.w3.org/TR/2001/REC-SVG-20010904/DTD/svg10.dtd">
<svg version="1.0" xmlns="http://www.w3.org/2000/svg"
 width="200.000000pt" height="200.000000pt" viewBox="0 0 200.000000 200.000000"
 preserveAspectRatio="xMidYMid meet">
<metadata>
Created by potrace 1.14, written by Peter Selinger 2001-2017
</metadata>
<g transform="translate(0.000000,200.000000) scale(0.100000,-0.100000)"
fill="#000000" stroke="none">
<path d="M1422 1750 c-18 -11 -39 -35 -47 -53 -13 -32 -19 -35 -137 -66 -136
-36 -285 -101 -363 -160 -42 -32 -54 -37 -75 -29 -61 23 -134 -19 -151 -86 -9
-36 -18 -47 -52 -66 -204 -113 -401 -297 -471 -438 -14 -30 -31 -48 -53 -57
-18 -8 -42 -29 -53 -47 -73 -121 84 -241 181 -137 25 27 32 29 102 29 137 0
257 -55 381 -175 56 -53 58 -56 51 -94 -12 -73 44 -141 117 -141 36 0 83 34
102 75 13 27 30 42 64 57 141 60 372 94 577 83 165 -8 172 -10 179 -46 9 -47
51 -79 103 -79 119 0 165 132 74 214 -14 13 -21 31 -21 55 0 49 -34 265 -60
381 -43 195 -139 441 -234 598 -18 32 -37 74 -40 95 -16 87 -104 131 -174 87z
m-22 -185 c14 -14 40 -28 61 -31 38 -6 38 -7 54 -75 23 -102 37 -265 30 -336
-4 -35 -8 -63 -10 -63 -2 0 -44 40 -92 88 -139 141 -282 198 -473 190 -49 -1
-90 0 -90 4 0 3 -2 13 -5 20 -8 19 92 89 192 135 59 27 263 89 304 93 3 0 16
-11 29 -25z m255 -188 c81 -175 137 -360 175 -583 11 -64 20 -121 20 -127 0
-7 -18 21 -40 60 -21 40 -58 97 -80 127 -31 41 -39 60 -35 79 8 32 -17 91 -48
111 -23 16 -24 22 -30 169 -4 83 -13 183 -22 222 -8 38 -15 72 -15 75 0 14 37
-52 75 -133z m-550 -132 c105 -22 226 -86 296 -156 52 -52 80 -101 66 -115 -2
-3 -42 0 -88 6 -46 6 -165 14 -264 17 l-181 6 -50 118 c-35 82 -48 121 -40
129 15 15 180 12 261 -5z m-371 -31 c24 -6 35 -21 72 -99 24 -51 44 -97 44
-103 0 -6 -15 -13 -32 -16 -244 -35 -399 -80 -533 -157 -122 -70 -127 -66 -58
39 75 113 215 236 378 331 60 35 71 39 84 27 9 -8 29 -18 45 -22z m151 -311
c28 -114 24 -273 -11 -380 -14 -44 -21 -53 -46 -58 -25 -6 -36 0 -81 42 -76
72 -155 129 -219 158 -74 34 -190 58 -253 52 l-49 -4 29 23 c43 34 178 99 265
127 69 23 217 52 300 60 19 2 40 5 46 5 7 1 15 -10 19 -25z m475 6 c96 -11
108 -14 138 -43 26 -24 41 -30 75 -30 23 0 49 3 57 7 37 18 198 -283 173 -321
-6 -10 -16 -16 -22 -15 -6 2 -88 6 -183 9 -248 10 -428 -15 -587 -79 -52 -21
-61 -22 -74 -9 -13 12 -13 19 -2 46 22 52 45 181 45 248 -1 35 -7 96 -14 137
l-13 74 151 -6 c83 -3 198 -11 256 -18z"/>
</g>
</svg>
