<?xml version="1.0" standalone="no"?>
<!DOCTYPE svg PUBLIC "-//W3C//DTD SVG 20010904//EN"
 "http://www.w3.org/TR/2001/REC-SVG-20010904/DTD/svg10.dtd">
<svg version="1.0" xmlns="http://www.w3.org/2000/svg"
 width="256.000000pt" height="256.000000pt" viewBox="0 0 256.000000 256.000000"
 preserveAspectRatio="xMidYMid meet">
<metadata>
Created by potrace 1.14, written by Peter Selinger 2001-2017
</metadata>
<g transform="translate(0.000000,256.000000) scale(0.100000,-0.100000)"
fill="#000000" stroke="none">
<path d="M2054 2446 c-91 -61 -186 -178 -310 -381 l-25 -40 7 80 7 79 -49 -43
c-129 -113 -231 -271 -300 -466 l-29 -80 -6 56 c-3 30 -17 80 -31 110 l-25 54
-48 -75 c-62 -95 -124 -247 -165 -405 l-33 -125 -33 69 c-51 104 -56 105 -98
19 -48 -98 -66 -175 -66 -278 0 -91 28 -227 57 -284 l18 -34 425 540 c234 297
429 542 433 545 13 8 -419 -587 -988 -1362 -105 -143 -195 -267 -200 -275 -8
-13 16 -1 143 74 46 27 65 50 159 192 l107 161 96 11 c118 14 231 51 310 103
65 42 74 53 35 43 -28 -7 -149 27 -180 50 -19 14 -16 15 37 16 82 0 153 18
230 56 73 37 182 133 230 201 l29 44 -28 -8 c-45 -13 -251 -9 -265 5 -9 9 -5
12 19 12 56 0 224 49 309 90 97 47 192 129 235 204 16 28 29 55 29 59 0 4 -21
-8 -46 -27 -50 -38 -127 -71 -190 -80 l-39 -7 50 24 c202 97 337 299 364 548
5 41 7 75 5 77 -1 2 -11 -16 -22 -40 -38 -85 -140 -202 -236 -270 -24 -18 -21
-12 19 42 68 93 110 173 146 280 29 84 33 108 33 205 1 90 -3 122 -22 177 -32
91 -38 94 -98 54z"/>
<path d="M320 105 l0 -25 730 0 730 0 0 25 0 25 -730 0 -730 0 0 -25z"/>
</g>
</svg>
