<?xml version="1.0" standalone="no"?>
<!DOCTYPE svg PUBLIC "-//W3C//DTD SVG 20010904//EN"
 "http://www.w3.org/TR/2001/REC-SVG-20010904/DTD/svg10.dtd">
<svg version="1.0" xmlns="http://www.w3.org/2000/svg"
 width="512.000000pt" height="512.000000pt" viewBox="0 0 512.000000 512.000000"
 preserveAspectRatio="xMidYMid meet">
<metadata>
Created by potrace 1.14, written by Peter Selinger 2001-2017
</metadata>
<g transform="translate(0.000000,512.000000) scale(0.100000,-0.100000)"
fill="#000000" stroke="none">
<path d="M4625 4439 c-325 -26 -834 -127 -1230 -246 -66 -20 -136 -44 -155
-53 -76 -38 -199 -185 -345 -410 -76 -117 -103 -151 -60 -75 59 104 136 225
170 265 19 23 35 43 35 45 0 5 -85 -29 -162 -63 -53 -24 -76 -42 -113 -89 -54
-68 -145 -213 -209 -333 -25 -47 -46 -83 -46 -80 0 9 66 162 89 209 31 59 108
177 143 217 17 19 26 34 22 34 -5 0 -65 -23 -134 -50 -148 -60 -365 -168 -507
-252 -135 -81 -337 -232 -395 -296 -171 -191 -244 -428 -236 -769 2 -78 0
-139 -5 -134 -13 13 -37 161 -37 229 1 131 40 348 95 528 4 10 -3 3 -14 -16
-64 -110 -108 -322 -118 -557 -3 -89 -10 -160 -15 -157 -11 7 -10 242 2 344
16 129 56 267 95 332 19 31 35 58 35 61 0 3 -10 4 -23 2 -36 -7 -105 -93 -153
-191 -64 -131 -109 -323 -136 -581 -6 -63 -15 -110 -19 -106 -12 14 -34 286
-33 418 0 91 5 149 18 194 9 35 15 65 13 68 -7 6 -90 -124 -119 -187 -14 -30
-35 -86 -47 -125 -42 -143 -46 -195 -43 -546 1 -195 -2 -347 -7 -360 -8 -18
-10 -4 -12 61 -1 47 -4 67 -6 45 -1 -22 -6 -65 -10 -95 l-6 -55 -8 43 c-4 23
-24 77 -43 120 -19 42 -36 91 -39 107 -4 27 -4 27 -6 -7 0 -20 10 -72 23 -115
54 -177 53 -183 -116 -419 -157 -219 -238 -346 -298 -464 -42 -84 -73 -160
-65 -160 3 0 48 21 100 47 l95 47 16 55 c21 75 130 282 208 400 36 54 147 203
246 332 203 263 444 521 748 801 315 291 734 630 1142 923 147 106 705 484
803 544 77 47 33 10 -90 -76 -282 -197 -641 -459 -873 -639 l-245 -189 275 -3
c172 -2 309 1 365 9 94 12 195 44 242 77 15 11 78 36 139 56 230 76 420 235
558 469 25 43 46 79 46 82 0 2 -26 -12 -57 -31 -142 -86 -244 -119 -488 -159
-188 -31 -202 -31 -90 4 180 56 589 212 622 237 18 14 55 35 81 46 26 12 128
67 227 124 167 95 318 205 393 287 l23 25 -45 -5 c-28 -4 -46 -2 -46 4 0 17
89 94 127 110 l36 15 -108 44 c-60 24 -109 43 -109 43 -1 -1 -50 -6 -111 -10z
m-3160 -1385 c-56 -85 -87 -228 -115 -532 -20 -217 -38 -322 -65 -370 -17 -32
-19 -25 -5 14 16 40 28 142 40 325 11 187 29 299 66 409 23 72 78 180 90 180
4 0 -1 -12 -11 -26z m-337 -295 c-13 -57 -15 -214 -9 -589 2 -130 0 -240 -6
-260 -8 -28 -10 -10 -9 85 0 66 -6 217 -13 335 -15 228 -9 318 25 436 20 70
28 65 12 -7z"/>
<path d="M3195 3002 c-35 -15 -84 -17 -371 -17 l-331 0 -79 -65 c-162 -132
-454 -390 -616 -543 -138 -131 -353 -358 -418 -441 -14 -18 -13 -19 4 -13 23
9 116 22 305 43 165 17 238 33 337 70 164 61 303 157 477 328 59 58 151 139
205 178 233 173 471 376 523 449 23 33 20 34 -36 11z"/>
<path d="M1965 1983 c-118 -46 -201 -60 -430 -72 l-190 -9 -33 -39 c-64 -74
-217 -274 -220 -287 -2 -11 13 -11 80 0 46 7 148 22 228 34 318 44 437 100
575 272 66 81 103 139 88 137 -5 -1 -48 -17 -98 -36z"/>
</g>
</svg>
