<?xml version="1.0" standalone="no"?>
<!DOCTYPE svg PUBLIC "-//W3C//DTD SVG 20010904//EN"
 "http://www.w3.org/TR/2001/REC-SVG-20010904/DTD/svg10.dtd">
<svg version="1.0" xmlns="http://www.w3.org/2000/svg"
 width="128.000000pt" height="128.000000pt" viewBox="0 0 128.000000 128.000000"
 preserveAspectRatio="xMidYMid meet">
<metadata>
Created by potrace 1.14, written by Peter Selinger 2001-2017
</metadata>
<g transform="translate(0.000000,128.000000) scale(0.100000,-0.100000)"
fill="#000000" stroke="none">
<path d="M1165 1178 c-11 -6 -130 -120 -265 -253 -244 -241 -246 -242 -352
-296 l-108 -54 50 -6 c88 -12 154 -80 166 -173 l7 -48 50 98 c49 96 58 107
292 344 133 135 249 256 258 270 49 72 -24 159 -98 118z"/>
<path d="M366 510 c-44 -14 -85 -58 -118 -129 -17 -35 -49 -83 -73 -107 -36
-38 -47 -44 -84 -44 -23 0 -51 5 -62 10 -33 18 -22 -13 19 -52 102 -98 266
-122 393 -58 48 25 111 87 135 132 41 77 13 183 -60 228 -39 24 -109 33 -150
20z"/>
</g>
</svg>
