<?xml version="1.0" standalone="no"?>
<!DOCTYPE svg PUBLIC "-//W3C//DTD SVG 20010904//EN"
 "http://www.w3.org/TR/2001/REC-SVG-20010904/DTD/svg10.dtd">
<svg version="1.0" xmlns="http://www.w3.org/2000/svg"
 width="256.000000pt" height="256.000000pt" viewBox="0 0 256.000000 256.000000"
 preserveAspectRatio="xMidYMid meet">
<metadata>
Created by potrace 1.14, written by Peter Selinger 2001-2017
</metadata>
<g transform="translate(0.000000,256.000000) scale(0.100000,-0.100000)"
fill="#000000" stroke="none">
<path d="M2325 2541 c-16 -10 -44 -34 -61 -52 -45 -48 -1310 -1742 -1330
-1781 -12 -23 -15 -45 -11 -81 l6 -50 -41 6 c-62 8 -145 -10 -220 -50 -52 -27
-90 -59 -168 -143 -62 -68 -117 -116 -143 -129 -51 -25 -126 -27 -186 -6 l-41
14 16 -32 c27 -51 115 -130 185 -164 105 -52 178 -68 314 -67 155 0 214 21
295 103 70 70 105 154 122 286 11 88 14 95 34 95 65 0 94 29 207 205 46 72
306 472 577 890 272 418 507 784 522 814 60 116 15 199 -77 142z"/>
</g>
</svg>
