<?xml version="1.0" standalone="no"?>
<!DOCTYPE svg PUBLIC "-//W3C//DTD SVG 20010904//EN"
 "http://www.w3.org/TR/2001/REC-SVG-20010904/DTD/svg10.dtd">
<svg version="1.0" xmlns="http://www.w3.org/2000/svg"
 width="512.000000pt" height="512.000000pt" viewBox="0 0 512.000000 512.000000"
 preserveAspectRatio="xMidYMid meet">
<metadata>
Created by potrace 1.14, written by Peter Selinger 2001-2017
</metadata>
<g transform="translate(0.000000,512.000000) scale(0.100000,-0.100000)"
fill="#000000" stroke="none">
<path d="M557 4628 c-111 -315 -161 -618 -155 -945 l3 -202 -31 -33 c-147
-156 -281 -419 -333 -654 -74 -332 -42 -816 79 -1199 35 -112 138 -330 197
-417 288 -430 721 -675 1353 -765 111 -16 209 -18 890 -18 681 0 779 2 890 18
632 90 1065 335 1353 765 59 87 162 305 197 417 121 383 153 867 79 1199 -52
235 -186 498 -333 654 l-31 33 3 202 c6 327 -44 630 -155 945 l-36 102 -36 -6
c-77 -12 -292 -79 -411 -126 -222 -90 -529 -253 -729 -387 l-87 -59 -94 18
c-161 31 -336 44 -610 44 -274 0 -449 -13 -610 -44 l-94 -18 -87 59 c-276 185
-660 375 -929 458 -87 28 -217 60 -241 61 -4 0 -22 -46 -42 -102z m1508 -2018
c382 -25 610 -25 998 1 592 40 811 14 1007 -116 117 -78 228 -213 288 -350 52
-120 64 -178 69 -347 8 -239 -25 -407 -113 -579 -169 -328 -498 -492 -1129
-561 -167 -18 -1083 -18 -1250 0 -631 69 -960 233 -1129 561 -88 172 -121 340
-113 579 5 179 22 253 86 381 122 241 319 390 571 431 41 6 82 13 90 15 50 10
368 2 625 -15z"/>
<path d="M1635 2189 c-106 -17 -194 -90 -253 -211 -48 -97 -64 -170 -64 -283
0 -113 16 -186 64 -283 108 -222 320 -281 487 -136 151 131 208 408 130 635
-65 190 -212 302 -364 278z"/>
<path d="M3405 2189 c-123 -18 -231 -124 -284 -278 -114 -332 59 -713 324
-713 121 0 226 77 293 214 48 97 64 170 64 283 0 113 -16 186 -64 283 -74 151
-200 232 -333 211z"/>
</g>
</svg>
