<?xml version="1.0" standalone="no"?>
<!DOCTYPE svg PUBLIC "-//W3C//DTD SVG 20010904//EN"
 "http://www.w3.org/TR/2001/REC-SVG-20010904/DTD/svg10.dtd">
<svg version="1.0" xmlns="http://www.w3.org/2000/svg"
 width="500.000000pt" height="500.000000pt" viewBox="0 0 500.000000 500.000000"
 preserveAspectRatio="xMidYMid meet">
<metadata>
Created by potrace 1.14, written by Peter Selinger 2001-2017
</metadata>
<g transform="translate(0.000000,500.000000) scale(0.100000,-0.100000)"
fill="#000000" stroke="none">
<path d="M2320 4990 c-508 -39 -994 -231 -1385 -547 -129 -104 -330 -311 -426
-438 -256 -342 -415 -723 -480 -1156 -30 -202 -30 -496 0 -698 82 -542 307
-1000 681 -1385 216 -222 419 -371 685 -501 254 -125 473 -193 756 -236 202
-30 496 -30 698 0 283 43 502 111 756 236 266 130 469 279 685 501 374 385
599 843 681 1385 30 202 30 496 0 698 -43 283 -111 502 -236 756 -130 266
-279 469 -501 685 -318 309 -687 517 -1109 625 -251 65 -565 94 -805 75z m467
-315 c475 -61 918 -280 1263 -625 345 -345 562 -784 625 -1263 19 -152 19
-422 0 -574 -63 -479 -280 -918 -625 -1263 -345 -345 -784 -562 -1263 -625
-152 -19 -422 -19 -574 0 -479 63 -918 280 -1263 625 -345 345 -562 784 -625
1263 -19 152 -19 422 0 574 105 806 653 1489 1425 1776 121 45 315 92 450 111
143 19 440 20 587 1z"/>
<path d="M1517 3993 c-47 -90 -64 -281 -38 -414 l13 -67 -47 -63 c-90 -122
-122 -204 -135 -348 -12 -132 11 -365 45 -452 5 -14 -11 -17 -142 -23 -395
-18 -657 -46 -683 -73 -14 -14 -10 -15 40 -9 317 37 785 66 799 50 4 -5 12
-21 18 -35 l11 -26 -116 -7 c-232 -13 -391 -36 -614 -88 -92 -21 -138 -36
-138 -45 0 -17 -1 -17 141 16 211 50 386 74 619 87 l125 7 32 -50 c42 -64 153
-168 227 -212 80 -48 253 -105 384 -127 l110 -18 -38 -45 c-41 -48 -79 -123
-80 -154 0 -34 -83 -60 -190 -61 -150 -1 -188 19 -301 160 -81 101 -108 126
-164 156 -52 27 -138 30 -162 4 -17 -17 -16 -19 27 -54 101 -82 145 -136 193
-236 60 -122 123 -192 210 -232 60 -28 68 -29 215 -29 l152 0 0 -178 c0 -206
-3 -215 -83 -278 -80 -63 -84 -82 -21 -93 84 -16 228 45 269 114 18 32 20 56
25 315 5 258 7 283 25 310 l19 30 10 -43 c6 -27 5 -160 0 -350 -11 -325 -13
-341 -63 -386 -27 -24 -28 -63 -1 -71 49 -16 168 46 213 113 43 62 49 108 54
445 l5 317 24 0 24 0 0 -310 c0 -325 6 -386 43 -442 50 -73 196 -148 231 -118
23 19 20 31 -26 100 l-43 63 -3 345 c-3 353 0 378 34 297 10 -24 15 -106 19
-287 3 -139 8 -268 11 -286 3 -21 21 -51 45 -77 48 -52 112 -77 198 -78 99 -1
106 21 26 82 -86 65 -85 62 -85 353 -1 381 -16 464 -104 554 l-51 53 80 11
c323 45 536 155 635 329 41 70 24 67 245 51 237 -17 507 -60 663 -106 16 -5
22 -2 22 9 0 38 -363 104 -705 128 -93 6 -171 13 -173 14 -1 1 3 16 9 33 l11
32 86 0 c136 0 446 -19 567 -35 217 -29 218 -29 213 -14 -9 27 -330 65 -651
75 -183 6 -207 9 -203 23 36 129 44 449 13 561 -25 93 -76 195 -136 273 l-52
67 12 110 c13 122 4 220 -29 306 -17 48 -19 49 -62 52 -24 2 -65 -2 -90 -9
-69 -19 -206 -81 -291 -131 l-77 -46 -58 14 c-198 46 -574 39 -767 -13 l-57
-16 -58 38 c-132 88 -271 146 -384 160 -55 7 -57 6 -71 -22z m883 -890 c179
-4 326 -2 421 6 278 22 414 -31 498 -197 66 -131 66 -334 1 -463 -35 -68 -115
-145 -191 -183 -131 -66 -177 -71 -614 -71 -372 0 -394 1 -479 23 -161 41
-274 109 -340 205 -44 64 -64 120 -77 214 -38 274 169 498 441 478 36 -3 189
-8 340 -12z"/>
<path d="M1968 2855 c-58 -33 -88 -158 -59 -246 36 -111 157 -125 205 -25 39
83 26 204 -28 255 -30 28 -83 36 -118 16z"/>
<path d="M2964 2860 c-50 -20 -91 -121 -80 -198 12 -92 80 -161 141 -146 67
17 115 130 94 222 -23 103 -83 151 -155 122z"/>
</g>
</svg>
