<?xml version="1.0" standalone="no"?>
<!DOCTYPE svg PUBLIC "-//W3C//DTD SVG 20010904//EN"
 "http://www.w3.org/TR/2001/REC-SVG-20010904/DTD/svg10.dtd">
<svg version="1.0" xmlns="http://www.w3.org/2000/svg"
 width="237.000000pt" height="77.000000pt" viewBox="0 0 237.000000 77.000000"
 preserveAspectRatio="xMidYMid meet">
<metadata>
Created by potrace 1.14, written by Peter Selinger 2001-2017
</metadata>
<g transform="translate(0.000000,77.000000) scale(0.100000,-0.100000)"
fill="#000000" stroke="none">
<path d="M470 750 c-127 -20 -225 -75 -290 -163 l-35 -47 -62 0 -63 0 0 -40 0
-40 49 0 49 0 -1 -102 c-1 -120 13 -158 85 -224 91 -84 229 -128 403 -127 294
0 476 138 492 372 l6 81 87 0 87 0 6 -79 c16 -236 199 -375 492 -375 174 0
304 41 400 126 69 61 85 102 85 226 l0 102 50 0 50 0 0 40 0 40 -63 0 -62 0
-35 47 c-69 93 -164 144 -309 164 -192 27 -461 -41 -562 -142 -21 -21 -39 -46
-39 -54 0 -12 -18 -15 -98 -15 l-97 0 -19 34 c-21 39 -83 87 -153 117 -119 51
-331 79 -453 59z m309 -86 c88 -21 204 -78 231 -112 20 -25 22 -36 18 -132 -5
-121 -29 -183 -93 -238 -171 -151 -541 -143 -698 14 -46 46 -61 98 -54 182 10
105 26 142 87 202 57 57 110 83 207 100 65 12 221 4 302 -16z m1121 15 c130
-20 222 -81 266 -174 20 -41 24 -66 24 -143 0 -105 -10 -132 -65 -180 -47 -41
-97 -67 -171 -86 -209 -54 -424 -11 -530 107 -55 61 -74 122 -74 237 0 104 10
121 97 167 128 68 304 96 453 72z"/>
<path d="M393 538 c-63 -66 -87 -121 -88 -199 0 -84 27 -128 102 -165 76 -38
91 -29 47 26 -20 25 -43 59 -50 77 -21 49 -17 142 10 228 13 41 23 75 22 75
-1 0 -20 -19 -43 -42z"/>
<path d="M1522 536 c-102 -110 -119 -237 -43 -320 29 -32 94 -65 129 -66 22 0
22 1 -8 33 -17 17 -43 54 -57 82 -23 44 -25 58 -20 125 3 41 14 99 26 129 11
30 19 56 17 58 -2 2 -21 -16 -44 -41z"/>
</g>
</svg>
