<?xml version="1.0" standalone="no"?>
<!DOCTYPE svg PUBLIC "-//W3C//DTD SVG 20010904//EN"
 "http://www.w3.org/TR/2001/REC-SVG-20010904/DTD/svg10.dtd">
<svg version="1.0" xmlns="http://www.w3.org/2000/svg"
 width="128.000000pt" height="128.000000pt" viewBox="0 0 128.000000 128.000000"
 preserveAspectRatio="xMidYMid meet">
<metadata>
Created by potrace 1.14, written by Peter Selinger 2001-2017
</metadata>
<g transform="translate(0.000000,128.000000) scale(0.100000,-0.100000)"
fill="#000000" stroke="none">
<path d="M630 1205 c0 -32 -4 -45 -14 -45 -7 0 -19 -13 -26 -30 -15 -37 -81
-97 -126 -116 -50 -21 -113 -18 -140 7 l-22 21 -7 -21 c-5 -16 8 -43 49 -106
31 -47 63 -85 71 -85 8 0 15 -9 15 -20 0 -54 -148 -83 -204 -39 -24 19 -27 19
-33 3 -11 -29 19 -68 74 -94 l53 -25 0 -67 c0 -61 -2 -68 -27 -86 -63 -43
-154 -54 -220 -27 -45 19 -43 19 -43 -6 0 -27 108 -189 126 -189 10 0 14 -14
14 -50 l0 -50 -35 0 -35 0 0 -75 0 -75 535 0 535 0 0 75 0 75 -30 0 c-29 0
-30 1 -30 50 0 35 4 50 13 50 18 0 127 162 127 189 0 25 2 25 -46 5 -51 -22
-136 -15 -196 16 l-48 24 0 70 0 71 53 25 c55 26 85 65 74 94 -6 16 -9 16 -33
-3 -56 -44 -204 -15 -204 39 0 11 7 20 15 20 8 0 36 33 63 73 57 87 64 104 54
123 -7 12 -11 11 -27 -6 -22 -24 -88 -27 -139 -6 -45 19 -111 79 -126 116 -7
17 -19 30 -26 30 -10 0 -14 13 -14 45 0 25 -4 45 -10 45 -5 0 -10 -20 -10 -45z
m91 -151 c53 -57 155 -89 219 -69 45 14 4 -22 -48 -42 -40 -15 -78 -18 -252
-18 -174 0 -212 3 -252 18 -73 28 -79 45 -15 39 64 -5 139 23 183 69 24 25 35
29 84 29 48 0 60 -4 81 -26z m107 -251 l-3 -58 -185 0 -185 0 -3 58 -3 57 191
0 191 0 -3 -57z m-187 -83 c201 0 209 1 209 19 0 19 2 19 37 4 27 -11 58 -14
106 -10 68 4 69 4 50 -15 -40 -39 -111 -48 -403 -48 -292 -1 -362 8 -403 48
-19 19 -18 19 50 15 46 -4 79 -1 103 9 32 14 35 13 38 -4 3 -17 17 -18 213
-18z m-146 -182 l0 -73 -72 -3 -73 -3 0 76 0 75 73 0 73 0 -1 -72z m435 -3 l0
-76 -72 3 -73 3 -3 73 -3 72 76 0 75 0 0 -75z m-290 -90 l315 0 3 22 3 22 52
-25 c56 -25 144 -32 191 -14 45 17 19 -17 -32 -42 l-47 -23 -485 0 -486 0 -48
25 c-55 28 -77 58 -31 40 47 -18 136 -12 190 14 l50 23 5 -21 c6 -21 10 -21
320 -21z m-249 -95 l99 0 0 -85 0 -85 -145 0 -145 0 0 91 0 92 46 -7 c26 -3
91 -6 145 -6z m689 -80 l0 -90 -145 0 -145 0 0 85 0 84 113 4 c61 1 127 4 145
5 l32 2 0 -90z m-364 43 c-3 -21 -6 -59 -6 -85 l0 -48 -76 0 -77 0 7 38 c3 20
6 58 6 85 l0 47 76 0 77 0 -7 -37z m434 -208 l0 -55 -515 0 -515 0 0 48 c0 27
3 52 6 55 4 4 236 7 515 7 l509 0 0 -55z"/>
<path d="M487 833 c-4 -3 -7 -19 -7 -35 l0 -28 160 0 160 0 0 35 0 35 -153 0
c-85 0 -157 -3 -160 -7z"/>
</g>
</svg>
